<svg width="22" height="21" viewBox="0 0 22 21" fill="none" xmlns="http://www.w3.org/2000/svg">
<g id="&#240;&#159;&#166;&#134; icon &#34;list&#34;">
<path id="Vector" d="M22 2.25H8.55556V3.75H22V2.25Z" fill="#ED4A02"/>
<path id="Vector_2" d="M0 3C0 3.59334 0.191152 4.17336 0.549284 4.66671C0.907416 5.16006 1.41644 5.54458 2.01199 5.77164C2.60755 5.9987 3.26287 6.05811 3.89511 5.94236C4.52734 5.8266 5.10809 5.54088 5.5639 5.12132C6.01972 4.70176 6.33013 4.16721 6.45589 3.58527C6.58165 3.00333 6.51711 2.40013 6.27042 1.85195C6.02374 1.30377 5.60599 0.835235 5.07001 0.505591C4.53402 0.175947 3.90388 0 3.25926 0C2.39515 0.000893291 1.56671 0.317251 0.955687 0.879666C0.344667 1.44208 0.000970489 2.20462 0 3ZM3.25926 1.5C3.58157 1.5 3.89664 1.58797 4.16463 1.7528C4.43262 1.91762 4.6415 2.15189 4.76484 2.42597C4.88818 2.70006 4.92046 3.00166 4.85758 3.29264C4.7947 3.58361 4.63949 3.85088 4.41158 4.06066C4.18367 4.27044 3.8933 4.4133 3.57718 4.47118C3.26107 4.52906 2.9334 4.49935 2.63563 4.38582C2.33785 4.27229 2.08334 4.08003 1.90427 3.83336C1.72521 3.58668 1.62963 3.29667 1.62963 3C1.63011 2.60231 1.80196 2.22104 2.10747 1.93983C2.41298 1.65863 2.8272 1.50045 3.25926 1.5Z" fill="#ED4A02"/>
<path id="Vector_3" d="M22 9.75H8.55556V11.25H22V9.75Z" fill="#ED4A02"/>
<path id="Vector_4" d="M3.25926 13.5C3.90388 13.5 4.53402 13.3241 5.07001 12.9944C5.60599 12.6648 6.02374 12.1962 6.27042 11.6481C6.51711 11.0999 6.58165 10.4967 6.45589 9.91473C6.33013 9.33279 6.01972 8.79824 5.5639 8.37868C5.10809 7.95912 4.52734 7.6734 3.89511 7.55765C3.26287 7.44189 2.60755 7.5013 2.01199 7.72836C1.41644 7.95543 0.907416 8.33994 0.549284 8.83329C0.191152 9.32664 0 9.90666 0 10.5C0.000970489 11.2954 0.344667 12.0579 0.955687 12.6203C1.56671 13.1828 2.39515 13.4991 3.25926 13.5ZM3.25926 9C3.58157 9 3.89664 9.08798 4.16463 9.2528C4.43262 9.41762 4.6415 9.65189 4.76484 9.92598C4.88818 10.2001 4.92046 10.5017 4.85758 10.7926C4.7947 11.0836 4.63949 11.3509 4.41158 11.5607C4.18367 11.7704 3.8933 11.9133 3.57718 11.9712C3.26107 12.0291 2.9334 11.9994 2.63563 11.8858C2.33785 11.7723 2.08334 11.58 1.90427 11.3334C1.72521 11.0867 1.62963 10.7967 1.62963 10.5C1.63011 10.1023 1.80196 9.72104 2.10747 9.43983C2.41298 9.15863 2.8272 9.00045 3.25926 9Z" fill="#ED4A02"/>
<path id="Vector_5" d="M22 17.25H8.55556V18.75H22V17.25Z" fill="#ED4A02"/>
<path id="Vector_6" d="M3.25926 21C3.90388 21 4.53402 20.8241 5.07001 20.4944C5.60599 20.1648 6.02374 19.6962 6.27042 19.1481C6.51711 18.5999 6.58165 17.9967 6.45589 17.4147C6.33013 16.8328 6.01972 16.2982 5.5639 15.8787C5.10809 15.4591 4.52734 15.1734 3.89511 15.0576C3.26287 14.9419 2.60755 15.0013 2.01199 15.2284C1.41644 15.4554 0.907416 15.8399 0.549284 16.3333C0.191152 16.8266 0 17.4067 0 18C0.000970489 18.7954 0.344667 19.5579 0.955687 20.1203C1.56671 20.6828 2.39515 20.9991 3.25926 21ZM3.25926 16.5C3.58157 16.5 3.89664 16.588 4.16463 16.7528C4.43262 16.9176 4.6415 17.1519 4.76484 17.426C4.88818 17.7001 4.92046 18.0017 4.85758 18.2926C4.7947 18.5836 4.63949 18.8509 4.41158 19.0607C4.18367 19.2704 3.8933 19.4133 3.57718 19.4712C3.26107 19.5291 2.9334 19.4994 2.63563 19.3858C2.33785 19.2723 2.08334 19.08 1.90427 18.8334C1.72521 18.5867 1.62963 18.2967 1.62963 18C1.63011 17.6023 1.80196 17.221 2.10747 16.9398C2.41298 16.6586 2.8272 16.5004 3.25926 16.5Z" fill="#ED4A02"/>
</g>
</svg>
