<svg width="23" height="23" viewBox="0 0 23 23" fill="none" xmlns="http://www.w3.org/2000/svg">
<g id="&#240;&#159;&#166;&#134; icon &#34;map&#34;">
<path id="Vector" d="M22.1598 2.24159L15.0267 0L7.87271 2.26399L1.21991 0.143733C1.07735 0.0982924 0.927357 0.0906116 0.781711 0.121294C0.636065 0.151977 0.498737 0.220186 0.380517 0.320564C0.262297 0.420941 0.166407 0.550751 0.100382 0.699793C0.0343576 0.848834 -3.22713e-06 1.01305 2.27328e-10 1.17953V19.5149C0.000724813 19.7959 0.0826409 20.069 0.233425 20.2932C0.384209 20.5173 0.595706 20.6804 0.836098 20.7579L7.87108 23L15.0282 20.735L21.7836 22.858C21.926 22.9027 22.0757 22.9098 22.221 22.8787C22.3663 22.8476 22.5032 22.7792 22.621 22.6787C22.7388 22.5783 22.8343 22.4486 22.9001 22.2997C22.9658 22.1509 23 21.987 23 21.8209V3.48583C22.9994 3.20401 22.917 2.93011 22.7654 2.70559C22.6138 2.48108 22.4012 2.31819 22.1598 2.24159ZM7.04375 20.9454L1.53333 19.1892V2.03423L7.04375 3.79046V20.9454ZM14.2607 19.1879L8.57708 20.9866V3.83073L14.2607 2.03207V19.1879ZM21.4667 20.9693L15.7941 19.1869V2.02987L21.4667 3.81232V20.9693Z" fill="#EF1600"/>
</g>
</svg>
