<svg width="24" height="24" viewBox="0 0 24 24" fill="none" xmlns="http://www.w3.org/2000/svg">
<g id="Frame">
<path id="Vector" d="M21.375 9.86253C21.3533 9.7959 21.3133 9.73669 21.2596 9.69161C21.2059 9.64654 21.1407 9.6174 21.0712 9.60753L15.03 8.73379L12.3375 3.2738C12.3068 3.21039 12.2589 3.15692 12.1992 3.11951C12.1395 3.0821 12.0705 3.06226 12 3.06226C11.9295 3.06226 11.8605 3.0821 11.8008 3.11951C11.7411 3.15692 11.6932 3.21039 11.6625 3.2738L8.97 8.73379L2.9475 9.60753C2.87775 9.61702 2.81207 9.64597 2.75799 9.69105C2.70391 9.73612 2.66361 9.79552 2.6417 9.86242C2.61979 9.92932 2.61716 10.001 2.6341 10.0693C2.65104 10.1377 2.68688 10.1999 2.7375 10.2488L7.09875 14.4975L6.0675 20.4975C6.05411 20.5678 6.06113 20.6405 6.08771 20.707C6.1143 20.7734 6.15934 20.8309 6.2175 20.8725C6.27386 20.9137 6.34054 20.9383 6.4101 20.9436C6.47966 20.9489 6.54934 20.9347 6.61125 20.9025L12 18.06L17.3888 20.8913C17.4414 20.921 17.5008 20.9365 17.5613 20.9363C17.6411 20.9355 17.7186 20.9092 17.7825 20.8613C17.8407 20.8196 17.8857 20.7622 17.9123 20.6957C17.9389 20.6293 17.9459 20.5566 17.9325 20.4863L16.9012 14.4863L21.2625 10.2488C21.316 10.2018 21.355 10.1404 21.3749 10.072C21.3948 10.0036 21.3949 9.93097 21.375 9.86253ZM16.2375 14.0963C16.1935 14.1388 16.1606 14.1915 16.1416 14.2497C16.1227 14.3078 16.1183 14.3698 16.1287 14.43L17.0625 19.875L12.1875 17.3025C12.1327 17.2754 12.0724 17.2613 12.0113 17.2613C11.9501 17.2613 11.8898 17.2754 11.835 17.3025L6.9375 19.875L7.875 14.43C7.88546 14.3698 7.88104 14.3078 7.8621 14.2497C7.84312 14.1915 7.81024 14.1388 7.76625 14.0963L3.80625 10.2413L9.27375 9.44628C9.33383 9.43728 9.39083 9.41377 9.4398 9.37785C9.48881 9.34192 9.52834 9.29463 9.555 9.24004L12 4.28629L14.445 9.24004C14.4717 9.29463 14.5112 9.34192 14.5602 9.37785C14.6092 9.41377 14.6662 9.43728 14.7262 9.44628L20.1937 10.2413L16.2375 14.0963Z" fill="#EC8F03"/>
</g>
</svg>
