<svg width="24" height="24" viewBox="0 0 24 24" fill="none" xmlns="http://www.w3.org/2000/svg">
<g id="Layer_1">
<path id="Vector" d="M4.17188 10.125L19.8281 10.125C20.0611 10.125 20.25 9.93612 20.25 9.70312C20.25 9.47013 20.0611 9.28125 19.8281 9.28125L4.17188 9.28125C3.93888 9.28125 3.75 9.47013 3.75 9.70312C3.75 9.93612 3.93888 10.125 4.17188 10.125Z" fill="#EF1600"/>
<path id="Vector_2" d="M4.17188 5.53125L19.8281 5.53125C20.0611 5.53125 20.25 5.34237 20.25 5.10938C20.25 4.87638 20.0611 4.6875 19.8281 4.6875L4.17188 4.6875C3.93888 4.6875 3.75 4.87638 3.75 5.10938C3.75 5.34237 3.93888 5.53125 4.17188 5.53125Z" fill="#EF1600"/>
<path id="Vector_3" d="M4.17188 14.7188H19.8281C19.94 14.7188 20.0473 14.6743 20.1264 14.5952C20.2056 14.5161 20.25 14.4088 20.25 14.2969C20.25 14.185 20.2056 14.0777 20.1264 13.9986C20.0473 13.9194 19.94 13.875 19.8281 13.875H4.17188C4.05999 13.875 3.95268 13.9194 3.87356 13.9986C3.79445 14.0777 3.75 14.185 3.75 14.2969C3.75 14.4088 3.79445 14.5161 3.87356 14.5952C3.95268 14.6743 4.05999 14.7188 4.17188 14.7188Z" fill="#EF1600"/>
<path id="Vector_4" d="M4.17188 19.3125L19.8281 19.3125C20.0611 19.3125 20.25 19.1236 20.25 18.8906C20.25 18.6576 20.0611 18.4688 19.8281 18.4688L4.17188 18.4688C3.93888 18.4688 3.75 18.6576 3.75 18.8906C3.75 19.1236 3.93888 19.3125 4.17188 19.3125Z" fill="#EF1600"/>
</g>
</svg>
